# xmcd
#
# Track frame offsets:
#	150
#	11967
#	25444
#	38375
#	51354
#	62534
#	75804
#	88229
#	100062
#	114188
#	127575
#	140322
#	150843
#	161393
#	175929
#	190165
#
# Disc length: 2714 seconds
#
# Revision: 1
# Processed by: cddbd v1.5.1PL2 Copyright (c) Steve Scherf et al.
# Submitted via: MusicManager 7.3.0.0 
#
DISCID=b00a9810
DTITLE=Ray Charles - A sentimental blues
DYEAR=2001
DGENRE=Jazz
TTITLE0=How long, how long blues
TTITLE1=Alone in the city
TTITLE2=Can anyone ask for more
TTITLE3=You always miss the waer
TTITLE4=A sentimental blues
TTITLE5=Don't put all your dreams in one basket
TTITLE6=I've had my fun
TTITLE7=She's on the ball
TTITLE8=I'm going down the river
TTITLE9=Baby won't you please come home
TTITLE10=Rockin' chair blues
TTITLE11=Sittin' on top of the world
TTITLE12=Ain't that fine
TTITLE13=Someday (S.Moore)
TTITLE14=Someday (R.Charles)
TTITLE15=The midnight hour
EXTD=
EXTT0=
EXTT1=
EXTT2=
EXTT3=
EXTT4=
EXTT5=
EXTT6=
EXTT7=
EXTT8=
EXTT9=
EXTT10=
EXTT11=
EXTT12=
EXTT13=
EXTT14=
EXTT15=
PLAYORDER=
